<?xml version='1.0' encoding='UTF-8'?>
<svg width="74mm" height="74mm" version="1.1" viewBox="0 0 74 74" xmlns="http://www.w3.org/2000/svg"><path d="M4,4H6V6H4zM6,4H8V6H6zM8,4H10V6H8zM10,4H12V6H10zM12,4H14V6H12zM14,4H16V6H14zM16,4H18V6H16zM24,4H26V6H24zM48,4H50V6H48zM56,4H58V6H56zM58,4H60V6H58zM60,4H62V6H60zM62,4H64V6H62zM64,4H66V6H64zM66,4H68V6H66zM68,4H70V6H68zM4,6H6V8H4zM16,6H18V8H16zM20,6H22V8H20zM22,6H24V8H22zM24,6H26V8H24zM28,6H30V8H28zM30,6H32V8H30zM32,6H34V8H32zM36,6H38V8H36zM38,6H40V8H38zM46,6H48V8H46zM48,6H50V8H48zM52,6H54V8H52zM56,6H58V8H56zM68,6H70V8H68zM4,8H6V10H4zM8,8H10V10H8zM10,8H12V10H10zM12,8H14V10H12zM16,8H18V10H16zM20,8H22V10H20zM22,8H24V10H22zM24,8H26V10H24zM28,8H30V10H28zM30,8H32V10H30zM34,8H36V10H34zM38,8H40V10H38zM40,8H42V10H40zM46,8H48V10H46zM50,8H52V10H50zM52,8H54V10H52zM56,8H58V10H56zM60,8H62V10H60zM62,8H64V10H62zM64,8H66V10H64zM68,8H70V10H68zM4,10H6V12H4zM8,10H10V12H8zM10,10H12V12H10zM12,10H14V12H12zM16,10H18V12H16zM20,10H22V12H20zM24,10H26V12H24zM42,10H44V12H42zM46,10H48V12H46zM48,10H50V12H48zM52,10H54V12H52zM56,10H58V12H56zM60,10H62V12H60zM62,10H64V12H62zM64,10H66V12H64zM68,10H70V12H68zM4,12H6V14H4zM8,12H10V14H8zM10,12H12V14H10zM12,12H14V14H12zM16,12H18V14H16zM22,12H24V14H22zM24,12H26V14H24zM34,12H36V14H34zM40,12H42V14H40zM50,12H52V14H50zM56,12H58V14H56zM60,12H62V14H60zM62,12H64V14H62zM64,12H66V14H64zM68,12H70V14H68zM4,14H6V16H4zM16,14H18V16H16zM22,14H24V16H22zM24,14H26V16H24zM26,14H28V16H26zM30,14H32V16H30zM32,14H34V16H32zM36,14H38V16H36zM44,14H46V16H44zM48,14H50V16H48zM56,14H58V16H56zM68,14H70V16H68zM4,16H6V18H4zM6,16H8V18H6zM8,16H10V18H8zM10,16H12V18H10zM12,16H14V18H12zM14,16H16V18H14zM16,16H18V18H16zM20,16H22V18H20zM24,16H26V18H24zM28,16H30V18H28zM32,16H34V18H32zM36,16H38V18H36zM40,16H42V18H40zM44,16H46V18H44zM48,16H50V18H48zM52,16H54V18H52zM56,16H58V18H56zM58,16H60V18H58zM60,16H62V18H60zM62,16H64V18H62zM64,16H66V18H64zM66,16H68V18H66zM68,16H70V18H68zM20,18H22V20H20zM22,18H24V20H22zM24,18H26V20H24zM48,18H50V20H48zM50,18H52V20H50zM4,20H6V22H4zM16,20H18V22H16zM20,20H22V22H20zM24,20H26V22H24zM30,20H32V22H30zM32,20H34V22H32zM34,20H36V22H34zM38,20H40V22H38zM48,20H50V22H48zM50,20H52V22H50zM54,20H56V22H54zM56,20H58V22H56zM62,20H64V22H62zM64,20H66V22H64zM66,20H68V22H66zM4,22H6V24H4zM8,22H10V24H8zM10,22H12V24H10zM12,22H14V24H12zM24,22H26V24H24zM28,22H30V24H28zM32,22H34V24H32zM34,22H36V24H34zM40,22H42V24H40zM42,22H44V24H42zM46,22H48V24H46zM48,22H50V24H48zM50,22H52V24H50zM60,22H62V24H60zM62,22H64V24H62zM64,22H66V24H64zM66,22H68V24H66zM12,24H14V26H12zM16,24H18V26H16zM18,24H20V26H18zM26,24H28V26H26zM28,24H30V26H28zM34,24H36V26H34zM36,24H38V26H36zM40,24H42V26H40zM48,24H50V26H48zM60,24H62V26H60zM64,24H66V26H64zM66,24H68V26H66zM6,26H8V28H6zM8,26H10V28H8zM10,26H12V28H10zM12,26H14V28H12zM14,26H16V28H14zM20,26H22V28H20zM22,26H24V28H22zM28,26H30V28H28zM32,26H34V28H32zM34,26H36V28H34zM44,26H46V28H44zM48,26H50V28H48zM56,26H58V28H56zM58,26H60V28H58zM60,26H62V28H60zM62,26H64V28H62zM64,26H66V28H64zM68,26H70V28H68zM4,28H6V30H4zM6,28H8V30H6zM8,28H10V30H8zM14,28H16V30H14zM16,28H18V30H16zM18,28H20V30H18zM30,28H32V30H30zM32,28H34V30H32zM34,28H36V30H34zM36,28H38V30H36zM38,28H40V30H38zM40,28H42V30H40zM42,28H44V30H42zM44,28H46V30H44zM46,28H48V30H46zM48,28H50V30H48zM50,28H52V30H50zM52,28H54V30H52zM56,28H58V30H56zM68,28H70V30H68zM6,30H8V32H6zM12,30H14V32H12zM14,30H16V32H14zM22,30H24V32H22zM26,30H28V32H26zM30,30H32V32H30zM32,30H34V32H32zM36,30H38V32H36zM44,30H46V32H44zM50,30H52V32H50zM54,30H56V32H54zM56,30H58V32H56zM58,30H60V32H58zM64,30H66V32H64zM66,30H68V32H66zM68,30H70V32H68zM4,32H6V34H4zM8,32H10V34H8zM10,32H12V34H10zM12,32H14V34H12zM14,32H16V34H14zM16,32H18V34H16zM18,32H20V34H18zM20,32H22V34H20zM28,32H30V34H28zM30,32H32V34H30zM32,32H34V34H32zM38,32H40V34H38zM40,32H42V34H40zM42,32H44V34H42zM46,32H48V34H46zM48,32H50V34H48zM54,32H56V34H54zM56,32H58V34H56zM60,32H62V34H60zM62,32H64V34H62zM66,32H68V34H66zM4,34H6V36H4zM6,34H8V36H6zM12,34H14V36H12zM14,34H16V36H14zM28,34H30V36H28zM30,34H32V36H30zM32,34H34V36H32zM34,34H36V36H34zM40,34H42V36H40zM42,34H44V36H42zM52,34H54V36H52zM54,34H56V36H54zM60,34H62V36H60zM64,34H66V36H64zM68,34H70V36H68zM4,36H6V38H4zM12,36H14V38H12zM14,36H16V38H14zM16,36H18V38H16zM18,36H20V38H18zM20,36H22V38H20zM24,36H26V38H24zM36,36H38V38H36zM38,36H40V38H38zM40,36H42V38H40zM42,36H44V38H42zM44,36H46V38H44zM48,36H50V38H48zM50,36H52V38H50zM54,36H56V38H54zM58,36H60V38H58zM60,36H62V38H60zM68,36H70V38H68zM4,38H6V40H4zM8,38H10V40H8zM10,38H12V40H10zM12,38H14V40H12zM26,38H28V40H26zM30,38H32V40H30zM32,38H34V40H32zM34,38H36V40H34zM36,38H38V40H36zM38,38H40V40H38zM40,38H42V40H40zM42,38H44V40H42zM44,38H46V40H44zM46,38H48V40H46zM48,38H50V40H48zM50,38H52V40H50zM56,38H58V40H56zM62,38H64V40H62zM64,38H66V40H64zM66,38H68V40H66zM68,38H70V40H68zM4,40H6V42H4zM6,40H8V42H6zM12,40H14V42H12zM14,40H16V42H14zM16,40H18V42H16zM18,40H20V42H18zM22,40H24V42H22zM24,40H26V42H24zM34,40H36V42H34zM42,40H44V42H42zM50,40H52V42H50zM56,40H58V42H56zM58,40H60V42H58zM62,40H64V42H62zM64,40H66V42H64zM68,40H70V42H68zM4,42H6V44H4zM18,42H20V44H18zM20,42H22V44H20zM24,42H26V44H24zM30,42H32V44H30zM34,42H36V44H34zM36,42H38V44H36zM38,42H40V44H38zM40,42H42V44H40zM46,42H48V44H46zM54,42H56V44H54zM60,42H62V44H60zM62,42H64V44H62zM64,42H66V44H64zM66,42H68V44H66zM6,44H8V46H6zM16,44H18V46H16zM18,44H20V46H18zM20,44H22V46H20zM22,44H24V46H22zM24,44H26V46H24zM26,44H28V46H26zM32,44H34V46H32zM36,44H38V46H36zM42,44H44V46H42zM44,44H46V46H44zM46,44H48V46H46zM48,44H50V46H48zM52,44H54V46H52zM54,44H56V46H54zM60,44H62V46H60zM62,44H64V46H62zM66,44H68V46H66zM68,44H70V46H68zM4,46H6V48H4zM14,46H16V48H14zM22,46H24V48H22zM36,46H38V48H36zM38,46H40V48H38zM40,46H42V48H40zM44,46H46V48H44zM46,46H48V48H46zM48,46H50V48H48zM50,46H52V48H50zM54,46H56V48H54zM58,46H60V48H58zM60,46H62V48H60zM62,46H64V48H62zM4,48H6V50H4zM14,48H16V50H14zM16,48H18V50H16zM24,48H26V50H24zM26,48H28V50H26zM28,48H30V50H28zM30,48H32V50H30zM32,48H34V50H32zM34,48H36V50H34zM36,48H38V50H36zM38,48H40V50H38zM44,48H46V50H44zM46,48H48V50H46zM52,48H54V50H52zM54,48H56V50H54zM56,48H58V50H56zM62,48H64V50H62zM64,48H66V50H64zM66,48H68V50H66zM4,50H6V52H4zM10,50H12V52H10zM14,50H16V52H14zM20,50H22V52H20zM22,50H24V52H22zM24,50H26V52H24zM26,50H28V52H26zM30,50H32V52H30zM32,50H34V52H32zM40,50H42V52H40zM48,50H50V52H48zM56,50H58V52H56zM60,50H62V52H60zM62,50H64V52H62zM64,50H66V52H64zM68,50H70V52H68zM4,52H6V54H4zM6,52H8V54H6zM8,52H10V54H8zM10,52H12V54H10zM12,52H14V54H12zM16,52H18V54H16zM20,52H22V54H20zM22,52H24V54H22zM28,52H30V54H28zM34,52H36V54H34zM36,52H38V54H36zM42,52H44V54H42zM44,52H46V54H44zM48,52H50V54H48zM50,52H52V54H50zM52,52H54V54H52zM54,52H56V54H54zM56,52H58V54H56zM58,52H60V54H58zM60,52H62V54H60zM62,52H64V54H62zM20,54H22V56H20zM24,54H26V56H24zM26,54H28V56H26zM28,54H30V56H28zM30,54H32V56H30zM32,54H34V56H32zM34,54H36V56H34zM40,54H42V56H40zM42,54H44V56H42zM44,54H46V56H44zM50,54H52V56H50zM52,54H54V56H52zM60,54H62V56H60zM64,54H66V56H64zM68,54H70V56H68zM4,56H6V58H4zM6,56H8V58H6zM8,56H10V58H8zM10,56H12V58H10zM12,56H14V58H12zM14,56H16V58H14zM16,56H18V58H16zM26,56H28V58H26zM28,56H30V58H28zM32,56H34V58H32zM34,56H36V58H34zM36,56H38V58H36zM40,56H42V58H40zM44,56H46V58H44zM46,56H48V58H46zM50,56H52V58H50zM52,56H54V58H52zM56,56H58V58H56zM60,56H62V58H60zM64,56H66V58H64zM4,58H6V60H4zM16,58H18V60H16zM22,58H24V60H22zM34,58H36V60H34zM42,58H44V60H42zM50,58H52V60H50zM52,58H54V60H52zM60,58H62V60H60zM62,58H64V60H62zM64,58H66V60H64zM66,58H68V60H66zM68,58H70V60H68zM4,60H6V62H4zM8,60H10V62H8zM10,60H12V62H10zM12,60H14V62H12zM16,60H18V62H16zM22,60H24V62H22zM24,60H26V62H24zM30,60H32V62H30zM40,60H42V62H40zM46,60H48V62H46zM52,60H54V62H52zM54,60H56V62H54zM56,60H58V62H56zM58,60H60V62H58zM60,60H62V62H60zM62,60H64V62H62zM66,60H68V62H66zM4,62H6V64H4zM8,62H10V64H8zM10,62H12V64H10zM12,62H14V64H12zM16,62H18V64H16zM22,62H24V64H22zM26,62H28V64H26zM30,62H32V64H30zM32,62H34V64H32zM36,62H38V64H36zM38,62H40V64H38zM44,62H46V64H44zM46,62H48V64H46zM48,62H50V64H48zM50,62H52V64H50zM54,62H56V64H54zM58,62H60V64H58zM60,62H62V64H60zM62,62H64V64H62zM64,62H66V64H64zM68,62H70V64H68zM4,64H6V66H4zM8,64H10V66H8zM10,64H12V66H10zM12,64H14V66H12zM16,64H18V66H16zM24,64H26V66H24zM32,64H34V66H32zM36,64H38V66H36zM38,64H40V66H38zM40,64H42V66H40zM44,64H46V66H44zM50,64H52V66H50zM52,64H54V66H52zM58,64H60V66H58zM60,64H62V66H60zM62,64H64V66H62zM64,64H66V66H64zM66,64H68V66H66zM68,64H70V66H68zM4,66H6V68H4zM16,66H18V68H16zM24,66H26V68H24zM26,66H28V68H26zM28,66H30V68H28zM30,66H32V68H30zM32,66H34V68H32zM34,66H36V68H34zM36,66H38V68H36zM42,66H44V68H42zM44,66H46V68H44zM50,66H52V68H50zM58,66H60V68H58zM60,66H62V68H60zM62,66H64V68H62zM64,66H66V68H64zM4,68H6V70H4zM6,68H8V70H6zM8,68H10V70H8zM10,68H12V70H10zM12,68H14V70H12zM14,68H16V70H14zM16,68H18V70H16zM20,68H22V70H20zM22,68H24V70H22zM38,68H40V70H38zM42,68H44V70H42zM48,68H50V70H48zM50,68H52V70H50zM52,68H54V70H52zM58,68H60V70H58zM66,68H68V70H66z" id="qr-path" fill="#000000" fill-opacity="1" fill-rule="nonzero" stroke="none" /></svg>